<svg width="30" height="30" viewBox="0 0 512 512" style="color:currentColor" xmlns="http://www.w3.org/2000/svg" class="h-full w-full"><rect width="512" height="512" x="0" y="0" rx="30" fill="transparent" stroke="transparent" stroke-width="0" stroke-opacity="100%" paint-order="stroke"></rect><svg width="256px" height="256px" viewBox="0 0 24 24" fill="currentColor" x="128" y="128" role="img" style="display:inline-block;vertical-align:middle" xmlns="http://www.w3.org/2000/svg"><g fill="currentColor"><circle cx="10.5" cy="19.5" r="1.5" fill="currentColor"/><circle cx="17.5" cy="19.5" r="1.5" fill="currentColor"/><path fill="currentColor" d="M21 7H7.334L6.18 4.23A1.995 1.995 0 0 0 4.333 3H2v2h2.334l4.743 11.385c.155.372.52.615.923.615h8c.417 0 .79-.259.937-.648l3-8A1.003 1.003 0 0 0 21 7zm-4 6h-2v2h-2v-2h-2v-2h2V9h2v2h2v2z"/></g></svg></svg>