<svg width="512" height="512" viewBox="0 0 512 512" style="color:currentColor, bav" xmlns="http://www.w3.org/2000/svg" ><rect width="512" height="512" x="0" y="0" rx="30" fill="transparent" stroke="transparent" stroke-width="0" stroke-opacity="100%" paint-order="stroke"></rect><svg width="256px" height="256px" viewBox="0 0 16 16" fill="currentColor" x="128" y="128" role="img" style="display:inline-block;vertical-align:middle" xmlns="http://www.w3.org/2000/svg"><g fill="currentColor"><path fill="currentColor" d="M0 1.5A.5.5 0 0 1 .5 1H2a.5.5 0 0 1 .485.379L2.89 3H14.5a.5.5 0 0 1 .491.592l-1.5 8A.5.5 0 0 1 13 12H4a.5.5 0 0 1-.491-.408L2.01 3.607L1.61 2H.5a.5.5 0 0 1-.5-.5zM3.102 4l1.313 7h8.17l1.313-7H3.102zM5 12a2 2 0 1 0 0 4a2 2 0 0 0 0-4zm7 0a2 2 0 1 0 0 4a2 2 0 0 0 0-4zm-7 1a1 1 0 1 1 0 2a1 1 0 0 1 0-2zm7 0a1 1 0 1 1 0 2a1 1 0 0 1 0-2z"/></g></svg></svg>