<!-- icon666.com - MILLIONS vector ICONS FREE --><svg viewBox="0 0 32 32" xmlns="http://www.w3.org/2000/svg"><g id="Layer_12" data-name="Layer 12"><path d="m11 3.5a2.5 2.5 0 0 0 -2.5-2.5h-5a2.5 2.5 0 0 0 0 5h5a2.5 2.5 0 0 0 2.5-2.5zm-8 0a.5.5 0 0 1 .5-.5h5a.5.5 0 0 1 0 1h-5a.5.5 0 0 1 -.5-.5z"/><path d="m10.5 26a2.5 2.5 0 1 0 2.5 2.5 2.5 2.5 0 0 0 -2.5-2.5zm0 3a.5.5 0 1 1 .5-.5.5.5 0 0 1 -.5.5z"/><path d="m21.5 26a2.5 2.5 0 1 0 2.5 2.5 2.5 2.5 0 0 0 -2.5-2.5zm0 3a.5.5 0 1 1 .5-.5.5.5 0 0 1 -.5.5z"/><path d="m30.39 8.26a3 3 0 0 0 -2.46-1.26h-18.86a3.11 3.11 0 0 0 -3.07 3.13v11.74a3.11 3.11 0 0 0 3.07 3.13h15.06a3.07 3.07 0 0 0 2.92-2.15l3.79-11.73a3.17 3.17 0 0 0 -.45-2.86zm-1.45 2.24-3.79 11.73a1.09 1.09 0 0 1 -1 .77h-15.08a1.1 1.1 0 0 1 -1.07-1.13v-11.74a1.1 1.1 0 0 1 1.07-1.13h18.86a1.06 1.06 0 0 1 .85.44 1.17 1.17 0 0 1 .16 1.06z"/><path d="m12 12a1 1 0 0 0 -1 1v6a1 1 0 0 0 2 0v-6a1 1 0 0 0 -1-1z"/><path d="m17 12a1 1 0 0 0 -1 1v6a1 1 0 0 0 2 0v-6a1 1 0 0 0 -1-1z"/><path d="m22 12a1 1 0 0 0 -1 1v6a1 1 0 0 0 2 0v-6a1 1 0 0 0 -1-1z"/></g></svg>