<!-- icon666.com - MILLIONS vector ICONS FREE --><svg xmlns="http://www.w3.org/2000/svg" id="Layer_3" data-name="Layer 3" viewBox="0 0 32 32"><path d="M28.278,5H17.722A2.7,2.7,0,0,0,16,5.631,2.7,2.7,0,0,0,14.278,5H3.722A2.725,2.725,0,0,0,1,7.722V24.278A2.725,2.725,0,0,0,3.722,27H14.278A2.7,2.7,0,0,0,16,26.369,2.7,2.7,0,0,0,17.722,27H28.278A2.725,2.725,0,0,0,31,24.278V7.722A2.725,2.725,0,0,0,28.278,5Zm-14,20H3.722A.723.723,0,0,1,3,24.278V7.722A.723.723,0,0,1,3.722,7H14.278A.723.723,0,0,1,15,7.722V24.278A.723.723,0,0,1,14.278,25ZM29,24.278a.723.723,0,0,1-.722.722H17.722A.723.723,0,0,1,17,24.278V7.722A.723.723,0,0,1,17.722,7H28.278A.723.723,0,0,1,29,7.722Z"/><path d="M26,9H20a1,1,0,0,0,0,2h6a1,1,0,0,0,0-2Z"/><path d="M23,13H20a1,1,0,0,0,0,2h3a1,1,0,0,0,0-2Z"/><path d="M11.565,10H6.435A1.437,1.437,0,0,0,5,11.435V14a4,4,0,0,0,3,3.858V20H7a1,1,0,0,0,0,2h4a1,1,0,0,0,0-2H10V17.858A4,4,0,0,0,13,14V11.435A1.437,1.437,0,0,0,11.565,10ZM11,14a2,2,0,0,1-4,0V12h4Z"/></svg>