<!-- icon666.com - MILLIONS vector ICONS FREE --><svg fill="none" viewBox="0 0 24 24" xmlns="http://www.w3.org/2000/svg"><g fill="rgb(0,0,0)"><path clip-rule="evenodd" d="m11 .25c-5.38478 0-9.75 4.36522-9.75 9.75 0 5.3848 4.36522 9.75 9.75 9.75 5.3848 0 9.75-4.3652 9.75-9.75 0-5.38478-4.3652-9.75-9.75-9.75zm-8.25 9.75c0-4.55635 3.69365-8.25 8.25-8.25 4.5563 0 8.25 3.69365 8.25 8.25 0 4.5563-3.6937 8.25-8.25 8.25-4.55635 0-8.25-3.6937-8.25-8.25z" fill-rule="evenodd"/><path d="m19.5304 17.4698c-.2929-.2929-.7678-.2929-1.0607 0-.2929.2928-.2929.7677 0 1.0606l3.9999 4c.2929.2929.7678.2929 1.0607 0s.2929-.7678 0-1.0607z"/></g></svg>